<?xml version="1.0" standalone="no"?>
<!DOCTYPE svg PUBLIC "-//W3C//DTD SVG 1.1//EN" "http://www.w3.org/Graphics/SVG/1.1/DTD/svg11.dtd" >
<svg xmlns="http://www.w3.org/2000/svg">
<metadata>Generated by IcoMoon</metadata>
<defs>
<font id="icomoon" horiz-adv-x="1024">
<font-face units-per-em="1024" ascent="960" descent="-64" />
<missing-glyph horiz-adv-x="1024" />
<glyph unicode="&#x20;" horiz-adv-x="512" d="" />
<glyph unicode="&#xe900;" glyph-name="adherents_32" d="M512 960c-281.6 0-512-230.4-512-512s230.4-512 512-512c281.6 0 512 230.4 512 512s-230.4 512-512 512zM809.6 579.2c54.4 0 99.2-44.8 99.2-102.4s-44.8-102.4-99.2-102.4c-54.4 0-99.2 44.8-99.2 102.4 0 54.4 44.8 102.4 99.2 102.4zM512 723.2c80 0 144-67.2 144-147.2s-64-147.2-144-147.2c-80 0-144 67.2-144 147.2s64 147.2 144 147.2zM214.4 579.2c54.4 0 99.2-44.8 99.2-102.4s-44.8-102.4-99.2-102.4c-54.4 0-99.2 44.8-99.2 102.4 0 54.4 44.8 102.4 99.2 102.4zM86.4 294.4c35.2 28.8 80 48 128 48 32 0 64-9.6 92.8-22.4-54.4-51.2-92.8-121.6-99.2-201.6-54.4 48-96 108.8-121.6 176zM784 89.6c-76.8-54.4-169.6-89.6-272-89.6s-195.2 35.2-272 89.6c0 0 0 0 0 3.2 0 150.4 121.6 272 272 272s272-121.6 272-275.2c0 3.2 0 3.2 0 0zM816 118.4c-6.4 80-41.6 150.4-99.2 201.6 28.8 16 57.6 22.4 92.8 22.4 48 0 92.8-16 128-48-25.6-67.2-67.2-128-121.6-176z" />
<glyph unicode="&#xe901;" glyph-name="biomasse_64" d="M400 96c0-9.6 6.4-16 16-16s16 6.4 16 16v49.6c36.8 3.2 72 12.8 102.4 32 0 0 0 0 1.6 0h136v-81.6c0-8 8-14.4 16-14.4 0 0 0 0 0 0 9.6 0 16 6.4 16 14.4v81.6h144c4.8 0 9.6 1.6 12.8 6.4s4.8 9.6 3.2 14.4l-160 624c-1.6 4.8-8 9.6-16 9.6 0 0 0 0 0 0-8 0-14.4-4.8-16-12.8l-68.8-286.4c-43.2 56-110.4 91.2-187.2 91.2-132.8 0-240-107.2-240-240 0-126.4 99.2-230.4 224-238.4v-49.6zM688 748.8l139.2-540.8h-123.2v48c0 9.6-8 16-16 16-9.6 0-16-6.4-16-16v-48h-94.4c48 48 78.4 107.2 78.4 176 0 40-9.6 78.4-27.2 112l59.2 252.8zM208 384c0 115.2 92.8 208 208 208 76.8 0 144-41.6 180.8-105.6 0-1.6 1.6-3.2 3.2-4.8 16-28.8 25.6-62.4 25.6-97.6 0-108.8-84.8-198.4-192-206.4v40l43.2 43.2c6.4 6.4 6.4 16 0 22.4s-16 6.4-22.4 0l-38.4-36.8-36.8 36.8c-6.4 6.4-16 6.4-22.4 0s-6.4-16 0-22.4l43.2-43.2v-40c-107.2 8-192 97.6-192 206.4z" />
<glyph unicode="&#xe902;" glyph-name="biomasse_100" d="M696.32 818.688c-1.024 4.096-5.12 8.192-10.24 8.192s-9.216-3.072-10.24-8.192l-76.8-309.248c-40.96 61.44-110.592 102.4-189.44 102.4-123.904 0-225.28-101.376-225.28-225.28 0-120.832 95.232-220.16 215.040-225.28v-61.44c0-6.144 4.096-10.24 10.24-10.24s10.24 4.096 10.24 10.24v61.44c37.888 2.048 72.704 12.288 103.424 30.72h152.576v-92.16c0-6.144 4.096-10.24 10.24-10.24s10.24 4.096 10.24 10.24v92.16h143.36c3.072 0 6.144 1.024 8.192 4.096 2.048 2.048 3.072 6.144 2.048 9.216l-153.6 613.376zM419.84 228.864l37.888 37.888c4.096 4.096 4.096 10.24 0 14.336s-10.24 4.096-14.336 0l-33.792-33.792-33.792 33.792c-4.096 4.096-10.24 4.096-14.336 0s-4.096-10.24 0-14.336l37.888-37.888v-46.080c-108.544 5.12-194.56 95.232-194.56 204.8 0 112.64 92.16 204.8 204.8 204.8s204.8-92.16 204.8-204.8c0-109.568-86.016-198.656-194.56-204.8v46.080zM696.32 212.48v47.104l27.648 27.648c4.096 4.096 4.096 10.24 0 14.336s-10.24 4.096-14.336 0l-23.552-23.552-23.552 23.552c-4.096 4.096-10.24 4.096-14.336 0s-4.096-10.24 0-14.336l27.648-27.648v-47.104h-123.904c50.176 40.96 82.944 104.448 82.944 174.080 0 34.816-8.192 67.584-22.528 97.28 0 1.024 1.024 2.048 1.024 3.072l71.68 287.744 141.312-562.176h-130.048z" />
<glyph unicode="&#xe903;" glyph-name="calendar_20" d="M307.2 755.2v102.4c0 30.72-20.48 51.2-51.2 51.2s-51.2-20.48-51.2-51.2v-102.4c0-30.72 20.48-51.2 51.2-51.2s51.2 20.48 51.2 51.2zM819.2 755.2v102.4c0 30.72-20.48 51.2-51.2 51.2s-51.2-20.48-51.2-51.2v-102.4c0-30.72 20.48-51.2 51.2-51.2s51.2 20.48 51.2 51.2zM153.6 806.4c-87.040 0-153.6-66.56-153.6-153.6v-460.8c0-87.040 66.56-153.6 153.6-153.6h716.8c87.040 0 153.6 66.56 153.6 153.6v460.8c0 87.040-66.56 153.6-153.6 153.6 0-56.32 0-153.6-102.4-153.6s-102.4 97.28-102.4 153.6h-307.2c0-56.32 0-153.6-102.4-153.6s-102.4 97.28-102.4 153.6zM716.8 550.4h102.4v-102.4h-102.4v102.4zM716.8 294.4h102.4v-102.4h-102.4v102.4zM460.8 550.4h102.4v-102.4h-102.4v102.4zM460.8 294.4h102.4v-102.4h-102.4v102.4zM204.8 294.4h102.4v-102.4h-102.4v102.4z" />
<glyph unicode="&#xe904;" glyph-name="check_32" d="M1024 448c0 281.6-230.4 512-512 512s-512-230.4-512-512 230.4-512 512-512 512 230.4 512 512zM512 0c-246.4 0-448 201.6-448 448s201.6 448 448 448 448-201.6 448-448-201.6-448-448-448zM678.4 659.2l-233.6-348.8-131.2 160c-12.8 12.8-32 16-44.8 3.2s-16-32-3.2-44.8l160-192c6.4-6.4 16-12.8 25.6-12.8 0 0 0 0 3.2 0 9.6 0 19.2 6.4 25.6 12.8l256 384c9.6 16 6.4 35.2-9.6 44.8-19.2 9.6-38.4 6.4-48-6.4z" />
<glyph unicode="&#xe905;" glyph-name="check_64" d="M512 960c-283.2 0-512-228.8-512-512s228.8-512 512-512 512 228.8 512 512-228.8 512-512 512zM512-32c-265.6 0-480 214.4-480 480s214.4 480 480 480 480-214.4 480-480-214.4-480-480-480zM744 684.8c-8 4.8-17.6 3.2-22.4-4.8l-275.2-428.8-177.6 208c-6.4 6.4-16 8-22.4 1.6s-8-16-1.6-22.4l192-224c3.2-3.2 8-4.8 12.8-4.8 0 0 0 0 1.6 0 4.8 0 9.6 3.2 12.8 8l288 448c1.6 4.8 0 14.4-8 19.2z" />
<glyph unicode="&#xe906;" glyph-name="chevronright_32" d="M470.4 662.4c-12.8 12.8-32 12.8-44.8 0s-12.8-32 0-44.8l169.6-169.6-169.6-169.6c-12.8-12.8-12.8-32 0-44.8 6.4-6.4 16-9.6 22.4-9.6s16 3.2 22.4 9.6l192 192c12.8 12.8 12.8 32 0 44.8l-192 192zM512 960c-281.6 0-512-230.4-512-512s230.4-512 512-512 512 230.4 512 512-230.4 512-512 512zM512 0c-246.4 0-448 201.6-448 448s201.6 448 448 448 448-201.6 448-448-201.6-448-448-448z" />
<glyph unicode="&#xe907;" glyph-name="chevronright_64" d="M512-64c283.2 0 512 228.8 512 512s-228.8 512-512 512-512-228.8-512-512 228.8-512 512-512zM512 928c265.6 0 480-214.4 480-480s-214.4-480-480-480-480 214.4-480 480 214.4 480 480 480zM468.8 276.8c3.2-3.2 8-4.8 11.2-4.8s8 1.6 11.2 4.8l160 160c6.4 6.4 6.4 16 0 22.4l-160 160c-6.4 6.4-16 6.4-22.4 0s-6.4-16 0-22.4l148.8-148.8-148.8-148.8c-6.4-6.4-6.4-16 0-22.4z" />
<glyph unicode="&#xe908;" glyph-name="close_32" d="M0 448c0-281.6 230.4-512 512-512s512 230.4 512 512-230.4 512-512 512-512-230.4-512-512zM512 896c246.4 0 448-201.6 448-448s-201.6-448-448-448-448 201.6-448 448 201.6 448 448 448zM297.6 233.6c6.4-6.4 12.8-9.6 22.4-9.6s16 3.2 22.4 9.6l169.6 169.6 169.6-169.6c6.4-6.4 16-9.6 22.4-9.6s16 3.2 22.4 9.6c12.8 12.8 12.8 32 0 44.8l-169.6 169.6 169.6 169.6c12.8 12.8 12.8 32 0 44.8s-32 12.8-44.8 0l-169.6-169.6-169.6 169.6c-12.8 12.8-32 12.8-44.8 0s-12.8-32 0-44.8l169.6-169.6-169.6-169.6c-12.8-12.8-12.8-32 0-44.8z" />
<glyph unicode="&#xe909;" glyph-name="close_64" d="M512-64c283.2 0 512 228.8 512 512s-228.8 512-512 512-512-228.8-512-512 228.8-512 512-512zM512 928c265.6 0 480-214.4 480-480s-214.4-480-480-480-480 214.4-480 480 214.4 480 480 480zM342.4 278.4c3.2-3.2 8-4.8 11.2-4.8s8 1.6 11.2 4.8l147.2 147.2 147.2-147.2c3.2-3.2 8-4.8 11.2-4.8s8 1.6 11.2 4.8c6.4 6.4 6.4 16 0 22.4l-147.2 147.2 147.2 147.2c6.4 6.4 6.4 16 0 22.4s-16 6.4-22.4 0l-147.2-147.2-147.2 147.2c-6.4 6.4-16 6.4-22.4 0s-6.4-16 0-22.4l147.2-147.2-147.2-147.2c-6.4-6.4-6.4-16 0-22.4z" />
<glyph unicode="&#xe90a;" glyph-name="download_64" d="M1024 448c0 283.2-228.8 512-512 512s-512-228.8-512-512 228.8-512 512-512 512 228.8 512 512zM32 448c0 265.6 214.4 480 480 480s480-214.4 480-480-214.4-480-480-480-480 214.4-480 480zM500.8 244.8c1.6-1.6 3.2-3.2 4.8-3.2 1.6-1.6 4.8-1.6 6.4-1.6s4.8 0 6.4 1.6c1.6 1.6 3.2 1.6 4.8 3.2l160 160c6.4 6.4 6.4 16 0 22.4s-16 6.4-22.4 0l-132.8-132.8v409.6c0 9.6-6.4 16-16 16s-16-6.4-16-16v-409.6l-132.8 132.8c-6.4 6.4-16 6.4-22.4 0s-6.4-16 0-22.4l160-160zM720 192c0 9.6-6.4 16-16 16h-384c-9.6 0-16-6.4-16-16s6.4-16 16-16h384c9.6 0 16 6.4 16 16z" />
<glyph unicode="&#xe90b;" glyph-name="eco_64" d="M736 544c0 123.2-100.8 224-224 224s-224-100.8-224-224 100.8-224 224-224 224 100.8 224 224zM512 352c-105.6 0-192 86.4-192 192s86.4 192 192 192 192-86.4 192-192-86.4-192-192-192zM568 654.4l-144-80c-8-4.8-11.2-14.4-6.4-22.4 3.2-4.8 8-8 14.4-8 3.2 0 4.8 0 8 1.6l144 80c8 4.8 11.2 14.4 6.4 22.4s-14.4 9.6-22.4 6.4zM568 590.4l-144-80c-8-4.8-11.2-14.4-6.4-22.4 3.2-4.8 8-8 14.4-8 3.2 0 4.8 0 8 1.6l144 80c8 4.8 11.2 14.4 6.4 22.4s-14.4 9.6-22.4 6.4zM568 526.4l-144-80c-8-4.8-11.2-14.4-6.4-22.4 3.2-4.8 8-8 14.4-8 3.2 0 4.8 0 8 1.6l144 80c8 4.8 11.2 14.4 6.4 22.4s-14.4 9.6-22.4 6.4zM576 304h-128c-9.6 0-16-6.4-16-16s6.4-16 16-16h128c9.6 0 16 6.4 16 16s-6.4 16-16 16zM592 240c0 9.6-6.4 16-16 16h-128c-9.6 0-16-6.4-16-16s6.4-16 16-16h128c9.6 0 16 6.4 16 16zM528 192c0-9.6-6.4-16-16-16s-16 6.4-16 16c0 9.6-6.4 16-16 16s-16-6.4-16-16c0-27.2 20.8-48 48-48s48 20.8 48 48c0 9.6-6.4 16-16 16s-16-6.4-16-16z" />
<glyph unicode="&#xe90c;" glyph-name="eco_100" d="M512 734.72c-112.64 0-204.8-92.16-204.8-204.8s92.16-204.8 204.8-204.8 204.8 92.16 204.8 204.8-92.16 204.8-204.8 204.8zM512 345.6c-101.376 0-184.32 82.944-184.32 184.32s82.944 184.32 184.32 184.32 184.32-82.944 184.32-184.32-82.944-184.32-184.32-184.32zM568.32 641.536l-133.12-71.68c-5.12-3.072-7.168-9.216-4.096-14.336 2.048-3.072 5.12-5.12 9.216-5.12 2.048 0 3.072 0 5.12 1.024l133.12 71.68c5.12 3.072 7.168 9.216 4.096 14.336s-9.216 6.144-14.336 4.096zM568.32 590.336l-133.12-71.68c-5.12-3.072-7.168-9.216-4.096-14.336 2.048-3.072 5.12-5.12 9.216-5.12 2.048 0 3.072 0 5.12 1.024l133.12 71.68c5.12 3.072 7.168 9.216 4.096 14.336s-9.216 6.144-14.336 4.096zM568.32 539.136l-133.12-71.68c-5.12-3.072-7.168-9.216-4.096-14.336 2.048-3.072 5.12-5.12 9.216-5.12 2.048 0 3.072 0 5.12 1.024l133.12 71.68c5.12 3.072 7.168 9.216 4.096 14.336s-9.216 6.144-14.336 4.096zM568.32 487.936l-133.12-71.68c-5.12-3.072-7.168-9.216-4.096-14.336 2.048-3.072 5.12-5.12 9.216-5.12 2.048 0 3.072 0 5.12 1.024l133.12 71.68c5.12 3.072 7.168 9.216 4.096 14.336s-9.216 6.144-14.336 4.096zM573.44 294.4h-122.88c-6.144 0-10.24-4.096-10.24-10.24s4.096-10.24 10.24-10.24h122.88c6.144 0 10.24 4.096 10.24 10.24s-4.096 10.24-10.24 10.24zM573.44 253.44h-122.88c-6.144 0-10.24-4.096-10.24-10.24s4.096-10.24 10.24-10.24h122.88c6.144 0 10.24 4.096 10.24 10.24s-4.096 10.24-10.24 10.24zM542.72 222.72c-6.144 0-10.24-4.096-10.24-10.24 0-11.264-9.216-20.48-20.48-20.48s-20.48 9.216-20.48 20.48c0 6.144-4.096 10.24-10.24 10.24s-10.24-4.096-10.24-10.24c0-22.528 18.432-40.96 40.96-40.96s40.96 18.432 40.96 40.96c0 5.12-5.12 10.24-10.24 10.24z" />
<glyph unicode="&#xe90d;" glyph-name="eolien_64" d="M512 512c-35.2 0-64-28.8-64-64s28.8-64 64-64 64 28.8 64 64-28.8 64-64 64zM512 416c-17.6 0-32 14.4-32 32s14.4 32 32 32 32-14.4 32-32-14.4-32-32-32zM512 880c-17.6 0-32-9.6-49.6-139.2-8-64-14.4-132.8-14.4-148.8 0-35.2 28.8-64 64-64s64 28.8 64 64c0 14.4-4.8 83.2-14.4 148.8-17.6 129.6-32 139.2-49.6 139.2zM512 560c-17.6 0-32 14.4-32 32 0 32 16 188.8 32 241.6 16-52.8 32-209.6 32-241.6 0-17.6-14.4-32-32-32zM161.6 220.8c52.8 0 243.2 91.2 257.6 99.2s25.6 22.4 30.4 38.4 1.6 33.6-6.4 48c-11.2 19.2-32 32-56 32-11.2 0-22.4-3.2-32-8-12.8-8-68.8-46.4-121.6-86.4-104-80-105.6-97.6-96-113.6 3.2-3.2 9.6-9.6 24-9.6zM371.2 403.2c4.8 3.2 9.6 4.8 16 4.8 11.2 0 22.4-6.4 27.2-16 4.8-8 4.8-16 3.2-24s-8-14.4-14.4-19.2c-20.8-12.8-166.4-80-225.6-92.8 38.4 40 164.8 131.2 193.6 147.2zM604.8 320c14.4-8 206.4-99.2 257.6-99.2v0c14.4 0 20.8 6.4 24 11.2 8 16 8 33.6-96 113.6-51.2 40-108.8 78.4-121.6 86.4-9.6 6.4-20.8 8-32 8-22.4 0-44.8-12.8-56-32-8-14.4-11.2-32-6.4-48 4.8-17.6 16-30.4 30.4-40zM609.6 392c6.4 9.6 16 16 27.2 16 4.8 0 11.2-1.6 16-4.8 28.8-16 155.2-107.2 193.6-148.8-59.2 14.4-204.8 81.6-225.6 92.8-8 4.8-12.8 12.8-14.4 20.8-3.2 8-1.6 16 3.2 24zM374.4 737.6c8 3.2 11.2 12.8 8 20.8s-12.8 11.2-20.8 8c-123.2-57.6-201.6-184-201.6-318.4 0-9.6 6.4-16 16-16s16 6.4 16 16c0 123.2 72 236.8 182.4 289.6zM251.2 529.6c1.6 0 3.2-1.6 6.4-1.6 6.4 0 12.8 3.2 14.4 9.6 22.4 57.6 64 105.6 118.4 136 8 4.8 11.2 14.4 6.4 22.4s-14.4 11.2-22.4 6.4c-62.4-33.6-108.8-86.4-134.4-152 0-9.6 3.2-17.6 11.2-20.8zM672 171.2c-107.2-60.8-240-56-342.4 14.4-8 4.8-17.6 3.2-22.4-4.8s-3.2-17.6 4.8-22.4c59.2-41.6 129.6-62.4 200-62.4 60.8 0 121.6 16 176 46.4 8 4.8 9.6 14.4 6.4 22.4-4.8 8-14.4 11.2-22.4 6.4zM360 203.2c46.4-28.8 99.2-43.2 152-43.2 16 0 30.4 1.6 46.4 3.2 8 1.6 14.4 9.6 12.8 17.6s-9.6 14.4-17.6 12.8c-60.8-9.6-124.8 3.2-177.6 35.2-8 4.8-17.6 1.6-22.4-4.8-3.2-6.4-1.6-16 6.4-20.8zM854.4 390.4c0 0 0 0 0 0 9.6 0 16 6.4 17.6 14.4 11.2 134.4-57.6 265.6-174.4 332.8-8 4.8-17.6 1.6-22.4-6.4s-1.6-17.6 6.4-22.4c107.2-60.8 169.6-180.8 158.4-302.4-1.6-6.4 4.8-14.4 14.4-16zM720 619.2c-6.4-6.4-8-14.4-1.6-22.4 40-48 59.2-107.2 57.6-169.6 0-9.6 6.4-12.8 16-12.8 0 0 0 0 0 0 8 0 16 3.2 16 12.8 1.6 70.4-20.8 134.4-65.6 188.8-4.8 8-16 9.6-22.4 3.2z" />
<glyph unicode="&#xe90e;" glyph-name="eolien_100" d="M512 396.8c28.672 0 51.2 22.528 51.2 51.2s-22.528 51.2-51.2 51.2-51.2-22.528-51.2-51.2 22.528-51.2 51.2-51.2zM512 478.72c17.408 0 30.72-13.312 30.72-30.72s-13.312-30.72-30.72-30.72-30.72 13.312-30.72 30.72 13.312 30.72 30.72 30.72zM512 519.68c31.744 0 51.2 31.744 51.2 61.44 0 13.312-4.096 78.848-11.264 143.36-13.312 122.88-26.624 133.12-39.936 133.12s-26.624-10.24-39.936-133.12c-7.168-64.512-11.264-130.048-11.264-143.36 0-29.696 19.456-61.44 51.2-61.44zM512 833.024c16.384-36.864 30.72-214.016 30.72-251.904 0-19.456-11.264-40.96-30.72-40.96s-30.72 21.504-30.72 40.96c0 37.888 14.336 215.040 30.72 251.904zM452.608 369.152c5.12 14.336 4.096 29.696-3.072 43.008-8.192 15.36-23.552 23.552-41.984 23.552-11.264 0-22.528-3.072-33.792-9.216s-68.608-45.056-121.856-83.968c-109.568-81.92-102.4-94.208-97.28-103.424 2.048-4.096 7.168-8.192 16.384-8.192 0 0 0 0 0 0 48.128 0 241.664 100.352 252.928 106.496 13.312 7.168 23.552 18.432 28.672 31.744zM177.152 251.392c25.6 33.792 176.128 139.264 206.848 157.696 7.168 4.096 15.36 7.168 23.552 7.168 7.168 0 17.408-2.048 24.576-13.312 4.096-7.168 5.12-16.384 2.048-25.6s-10.24-17.408-18.432-21.504c-23.552-14.336-191.488-98.304-238.592-104.448zM772.096 341.504c-52.224 38.912-109.568 77.824-121.856 83.968-10.24 6.144-22.528 9.216-33.792 9.216-18.432 0-32.768-8.192-41.984-23.552-14.336-25.6-4.096-59.392 24.576-75.776 11.264-7.168 205.824-106.496 252.928-106.496 10.24 0 14.336 4.096 16.384 8.192 6.144 10.24 13.312 22.528-96.256 104.448zM609.28 354.816c-16.384 9.216-26.624 29.696-16.384 47.104 6.144 11.264 16.384 13.312 24.576 13.312 7.168 0 16.384-2.048 23.552-7.168 31.744-18.432 181.248-123.904 206.848-157.696-48.128 7.168-216.064 91.136-238.592 104.448zM202.752 425.472c6.144 0 10.24 4.096 10.24 10.24 0 117.76 68.608 227.328 176.128 277.504 5.12 2.048 7.168 8.192 5.12 13.312s-8.192 7.168-13.312 5.12c-114.688-53.248-188.416-169.984-188.416-295.936 0-5.12 4.096-10.24 10.24-10.24zM275.456 516.608c1.024 0 2.048-1.024 4.096-1.024 4.096 0 8.192 2.048 9.216 6.144 21.504 56.32 62.464 102.4 114.688 131.072 5.12 3.072 7.168 9.216 4.096 14.336s-9.216 7.168-14.336 4.096c-57.344-30.72-101.376-80.896-124.928-142.336 0-4.096 2.048-10.24 7.168-12.288zM673.792 169.472c-102.4-59.392-231.424-54.272-328.704 13.312-5.12 3.072-11.264 2.048-14.336-3.072s-2.048-11.264 3.072-14.336c55.296-37.888 120.832-57.344 186.368-57.344 56.32 0 113.664 14.336 163.84 44.032 5.12 3.072 6.144 9.216 4.096 14.336-3.072 4.096-9.216 6.144-14.336 3.072zM375.808 222.72c-3.072-5.12-1.024-11.264 3.072-14.336 43.008-26.624 92.16-40.96 141.312-40.96 14.336 0 28.672 1.024 43.008 3.072 5.12 1.024 9.216 6.144 8.192 11.264s-6.144 9.216-11.264 8.192c-59.392-7.168-119.808 4.096-171.008 35.84-4.096 3.072-10.24 2.048-13.312-3.072zM843.776 386.56c0 0 0 0 0 0 6.144 0 10.24 4.096 11.264 9.216 10.24 125.952-54.272 247.808-162.816 310.272-5.12 3.072-11.264 1.024-14.336-4.096s-1.024-11.264 4.096-14.336c102.4-59.392 161.792-173.056 152.576-290.816-1.024-4.096 3.072-9.216 9.216-10.24zM719.872 594.432c-4.096-4.096-5.12-9.216-1.024-14.336 37.888-46.080 57.344-104.448 56.32-163.84 0-6.144 4.096-9.216 10.24-9.216 0 0 0 0 0 0 5.12 0 10.24 3.072 10.24 8.192 2.048 64.512-19.456 126.976-60.416 177.152-4.096 4.096-11.264 5.12-15.36 2.048z" />
<glyph unicode="&#xe90f;" glyph-name="euro_20" d="M1024 192v512c0 56.32-46.080 102.4-102.4 102.4h-819.2c-56.32 0-102.4-46.080-102.4-102.4v-512c0-56.32 46.080-102.4 102.4-102.4h819.2c56.32 0 102.4 46.080 102.4 102.4zM460.8 192h-307.2v51.2h307.2v-51.2zM716.8 192h-204.8v51.2h204.8v-51.2zM870.4 192h-102.4v51.2h102.4v-51.2zM870.4 396.8h-153.6v102.4h153.6v-102.4z" />
<glyph unicode="&#xe910;" glyph-name="facebook_26" d="M512-64c283.569 0 512 228.431 512 512s-228.431 512-512 512c-283.569 0-512-228.431-512-512s228.431-512 512-512zM393.846 487.385h78.769v66.954c0 63.015 39.385 98.462 98.462 98.462 27.569 0 59.077-7.877 59.077-7.877v-78.769h-27.569c-31.508 0-51.2 3.938-51.2-19.692v-59.077h78.769l-39.385-78.769h-39.385v-157.538h-78.769v157.538h-78.769v78.769z" />
<glyph unicode="&#xe911;" glyph-name="facebook_40" d="M512-64c281.6 0 512 230.4 512 512s-230.4 512-512 512c-281.6 0-512-230.4-512-512s230.4-512 512-512zM409.6 499.2h51.2v56.32c0 64 51.2 97.28 107.52 97.28 28.16 0 71.68-2.56 71.68-2.56v-66.56h-38.4c-30.72 0-38.4-15.36-38.4-35.84v-48.64h66.56l-10.24-76.8h-56.32v-179.2h-102.4v179.2h-51.2v76.8z" />
<glyph unicode="&#xe912;" glyph-name="fleche_64" d="M1024 448c0 283.2-228.8 512-512 512s-512-228.8-512-512 228.8-512 512-512 512 228.8 512 512zM32 448c0 265.6 214.4 480 480 480s480-214.4 480-480-214.4-480-480-480-480 214.4-480 480zM564.8 299.2c-6.4-6.4-6.4-16 0-22.4 3.2-3.2 8-4.8 11.2-4.8s8 1.6 11.2 4.8l160 160c1.6 1.6 3.2 3.2 3.2 4.8 1.6 3.2 1.6 8 0 12.8-1.6 1.6-1.6 3.2-3.2 4.8l-160 160c-6.4 6.4-16 6.4-22.4 0s-6.4-16 0-22.4l132.8-132.8h-409.6c-9.6 0-16-6.4-16-16s6.4-16 16-16h409.6l-132.8-132.8z" />
<glyph unicode="&#xe913;" glyph-name="geo_64" d="M512 256c-102.4 0-196.8-51.2-252.8-134.4-4.8-8-3.2-17.6 4.8-22.4 3.2-1.6 6.4-3.2 9.6-3.2 4.8 0 9.6 3.2 12.8 6.4 49.6 76.8 134.4 121.6 225.6 121.6s176-44.8 225.6-121.6c4.8-8 14.4-9.6 22.4-4.8s9.6 14.4 4.8 22.4c-56 84.8-150.4 136-252.8 136zM512 384c-136 0-262.4-60.8-348.8-166.4-4.8-6.4-4.8-17.6 1.6-22.4s17.6-4.8 22.4 1.6c80 97.6 196.8 153.6 323.2 153.6s243.2-56 323.2-153.6c3.2-3.2 8-6.4 12.8-6.4 3.2 0 6.4 1.6 9.6 3.2 6.4 4.8 8 16 1.6 22.4-83.2 107.2-209.6 168-345.6 168zM640 560v-160c0-9.6 6.4-16 16-16s16 6.4 16 16v160c0 9.6-6.4 16-16 16s-16-6.4-16-16zM352 560v-160c0-9.6 6.4-16 16-16s16 6.4 16 16v160c0 9.6-6.4 16-16 16s-16-6.4-16-16zM720 560c3.2 0 8 1.6 11.2 4.8 6.4 6.4 6.4 16 1.6 22.4l-208 224c-6.4 6.4-17.6 6.4-24 0l-208-224c-6.4-6.4-6.4-16 1.6-22.4s16-6.4 22.4 1.6l195.2 209.6 196.8-211.2c3.2-3.2 6.4-4.8 11.2-4.8zM656 704c9.6 0 16 6.4 16 16v64c0 9.6-6.4 16-16 16h-64c-9.6 0-16-6.4-16-16s6.4-16 16-16h48v-48c0-9.6 6.4-16 16-16zM512 320c-120 0-232-54.4-304-150.4-4.8-6.4-4.8-17.6 3.2-22.4 6.4-4.8 17.6-4.8 22.4 3.2 65.6 88 168 137.6 278.4 137.6s212.8-49.6 280-137.6c3.2-4.8 8-6.4 12.8-6.4 3.2 0 6.4 1.6 9.6 3.2 6.4 4.8 8 16 3.2 22.4-73.6 96-185.6 150.4-305.6 150.4zM334.4 406.4c-3.2 8-12.8 12.8-20.8 9.6-72-27.2-136-84.8-182.4-131.2-6.4-6.4-6.4-16 0-22.4 4.8-4.8 8-6.4 12.8-6.4s8 1.6 11.2 4.8c44.8 44.8 104 99.2 169.6 124.8 9.6 3.2 12.8 11.2 9.6 20.8zM697.6 385.6c67.2-25.6 126.4-80 169.6-124.8 3.2-3.2 8-4.8 11.2-4.8 4.8 0 8 1.6 11.2 4.8 6.4 6.4 6.4 16 0 22.4-46.4 46.4-108.8 104-182.4 131.2-8 3.2-17.6-1.6-20.8-9.6s3.2-16 11.2-19.2z" />
<glyph unicode="&#xe914;" glyph-name="geo_100" d="M512 232.96c-101.376 0-189.44-46.080-243.712-126.976-3.072-5.12-2.048-11.264 3.072-14.336 2.048-1.024 4.096-2.048 6.144-2.048 3.072 0 6.144 2.048 8.192 4.096 49.152 75.776 132.096 118.784 226.304 118.784s177.152-43.008 227.328-118.784c3.072-5.12 9.216-6.144 14.336-3.072s6.144 9.216 3.072 14.336c-55.296 81.92-143.36 128-244.736 128zM512 355.84c-134.144 0-252.928-56.32-335.872-157.696-3.072-4.096-3.072-11.264 1.024-14.336 2.048-2.048 4.096-2.048 6.144-2.048 3.072 0 6.144 1.024 8.192 4.096 78.848 96.256 192.512 149.504 320.512 149.504s241.664-53.248 319.488-149.504c3.072-4.096 10.24-5.12 14.336-1.024 4.096 3.072 5.12 10.24 1.024 14.336-81.92 100.352-200.704 156.672-334.848 156.672zM645.12 540.16v-163.84c0-6.144 4.096-10.24 10.24-10.24s10.24 4.096 10.24 10.24v163.84c0 6.144-4.096 10.24-10.24 10.24s-10.24-4.096-10.24-10.24zM358.4 540.16v-163.84c0-6.144 4.096-10.24 10.24-10.24s10.24 4.096 10.24 10.24v163.84c0 6.144-4.096 10.24-10.24 10.24s-10.24-4.096-10.24-10.24zM504.832 782.848l-204.8-225.28c-4.096-4.096-3.072-10.24 1.024-14.336 2.048-2.048 4.096-3.072 7.168-3.072s5.12 1.024 7.168 3.072l196.608 217.088 197.632-217.088c4.096-4.096 10.24-4.096 14.336-1.024 4.096 4.096 4.096 10.24 1.024 14.336l-204.8 225.28c-4.096 5.12-12.288 5.12-15.36 1.024zM593.92 765.44c-6.144 0-10.24-4.096-10.24-10.24s4.096-10.24 10.24-10.24h51.2l-1.024-51.2c0-6.144 4.096-10.24 10.24-10.24 0 0 0 0 0 0 5.12 0 10.24 4.096 10.24 10.24l1.024 61.44c0 3.072-1.024 5.12-3.072 7.168s-4.096 3.072-7.168 3.072h-61.44zM512 294.4c-115.712 0-223.232-53.248-294.912-147.456-3.072-4.096-3.072-11.264 2.048-14.336 4.096-3.072 11.264-3.072 14.336 2.048 67.584 88.064 169.984 139.264 278.528 139.264s210.944-51.2 278.528-139.264c2.048-3.072 5.12-4.096 8.192-4.096 2.048 0 4.096 1.024 6.144 2.048 4.096 3.072 5.12 10.24 2.048 14.336-71.68 94.208-179.2 147.456-294.912 147.456zM347.136 380.416c-2.048 5.12-8.192 8.192-13.312 6.144-67.584-25.6-128-64.512-178.176-114.688-4.096-4.096-4.096-10.24 0-14.336 2.048-2.048 4.096-3.072 7.168-3.072s5.12 1.024 7.168 3.072c49.152 47.104 106.496 84.992 172.032 109.568 5.12 2.048 7.168 7.168 5.12 13.312zM690.176 385.536c-5.12 2.048-11.264-1.024-13.312-6.144s1.024-11.264 6.144-13.312c65.536-24.576 122.88-61.44 169.984-110.592 2.048-2.048 5.12-3.072 7.168-3.072 3.072 0 5.12 1.024 7.168 3.072 4.096 4.096 4.096 10.24 0 14.336-50.176 51.2-109.568 90.112-177.152 115.712z" />
<glyph unicode="&#xe915;" glyph-name="hamburger_32" d="M512 960c-281.6 0-512-230.4-512-512s230.4-512 512-512 512 230.4 512 512-230.4 512-512 512zM512 0c-246.4 0-448 201.6-448 448s201.6 448 448 448 448-201.6 448-448-201.6-448-448-448zM704 544h-384c-19.2 0-32 12.8-32 32s12.8 32 32 32h384c19.2 0 32-12.8 32-32s-12.8-32-32-32zM704 416h-384c-19.2 0-32 12.8-32 32s12.8 32 32 32h384c19.2 0 32-12.8 32-32s-12.8-32-32-32zM704 288h-384c-19.2 0-32 12.8-32 32s12.8 32 32 32h384c19.2 0 32-12.8 32-32s-12.8-32-32-32z" />
<glyph unicode="&#xe916;" glyph-name="heart_20" d="M1024 663.040c-40.96 435.2-501.76 322.56-512 102.4-10.24 220.16-481.28 327.68-512-102.4s512-727.040 512-727.040 547.84 296.96 512 727.040z" />
<glyph unicode="&#xe917;" glyph-name="hydro_64" d="M768 592c-35.2 0-64 28.8-64 64 0 9.6-6.4 16-16 16s-16-6.4-16-16c0-35.2-28.8-64-64-64s-64 28.8-64 64c0 9.6-6.4 16-16 16s-16-6.4-16-16c0-35.2-28.8-64-64-64s-64 28.8-64 64c0 9.6-6.4 16-16 16s-16-6.4-16-16c0-35.2-28.8-64-64-64-9.6 0-16-6.4-16-16s6.4-16 16-16c33.6 0 62.4 17.6 80 43.2 17.6-25.6 46.4-43.2 80-43.2s62.4 17.6 80 43.2c17.6-25.6 46.4-43.2 80-43.2s62.4 17.6 80 43.2c17.6-25.6 46.4-43.2 80-43.2 9.6 0 16 6.4 16 16s-6.4 16-16 16zM768 416c-35.2 0-64 28.8-64 64 0 9.6-6.4 16-16 16s-16-6.4-16-16c0-35.2-28.8-64-64-64s-64 28.8-64 64c0 9.6-6.4 16-16 16s-16-6.4-16-16c0-35.2-28.8-64-64-64s-64 28.8-64 64c0 9.6-6.4 16-16 16s-16-6.4-16-16c0-35.2-28.8-64-64-64-9.6 0-16-6.4-16-16s6.4-16 16-16c33.6 0 62.4 17.6 80 43.2 17.6-25.6 46.4-43.2 80-43.2s62.4 17.6 80 43.2c17.6-25.6 46.4-43.2 80-43.2s62.4 17.6 80 43.2c17.6-25.6 46.4-43.2 80-43.2 9.6 0 16 6.4 16 16s-6.4 16-16 16zM784 224c0 9.6-6.4 16-16 16-35.2 0-64 28.8-64 64 0 9.6-6.4 16-16 16s-16-6.4-16-16c0-35.2-28.8-64-64-64s-64 28.8-64 64c0 9.6-6.4 16-16 16s-16-6.4-16-16c0-35.2-28.8-64-64-64s-64 28.8-64 64c0 9.6-6.4 16-16 16s-16-6.4-16-16c0-35.2-28.8-64-64-64-9.6 0-16-6.4-16-16s6.4-16 16-16c33.6 0 62.4 17.6 80 43.2 17.6-25.6 46.4-43.2 80-43.2s62.4 17.6 80 43.2c17.6-25.6 46.4-43.2 80-43.2s62.4 17.6 80 43.2c17.6-25.6 46.4-43.2 80-43.2 9.6 0 16 6.4 16 16z" />
<glyph unicode="&#xe918;" glyph-name="hydro_100" d="M788.48 212.48c-41.984 0-75.776 30.72-80.896 70.656 0 4.096 1.024 8.192 1.024 12.288 0 6.144-4.096 10.24-10.24 10.24-2.048 0-3.072-1.024-5.12-1.024-4.096-2.048-7.168-6.144-7.168-10.24s0-7.168 1.024-11.264c-6.144-39.936-40.96-70.656-82.944-70.656-46.080 0-81.92 35.84-81.92 81.92 0 0 0 0 0 0s0 0 0 1.024c0 6.144-4.096 10.24-10.24 10.24s-10.24-4.096-10.24-10.24c0-46.080-36.864-82.944-81.92-82.944-46.080 0-81.92 35.84-81.92 81.92 0 6.144-4.096 10.24-10.24 10.24s-10.24-4.096-10.24-10.24c0-46.080-35.84-81.92-81.92-81.92-6.144 0-10.24-4.096-10.24-10.24s4.096-10.24 10.24-10.24c40.96 0 75.776 23.552 92.16 57.344 16.384-33.792 51.2-57.344 92.16-57.344 39.936 0 74.752 23.552 92.16 58.368 16.384-34.816 51.2-58.368 92.16-58.368 39.936 0 75.776 22.528 92.16 56.32 16.384-33.792 51.2-56.32 92.16-56.32 6.144 0 10.24 4.096 10.24 10.24s-4.096 10.24-10.24 10.24zM788.48 355.84c-41.984 0-75.776 30.72-80.896 70.656 0 4.096 1.024 8.192 1.024 12.288 0 6.144-4.096 10.24-10.24 10.24-2.048 0-3.072-1.024-5.12-1.024-4.096-2.048-7.168-6.144-7.168-10.24s0-7.168 1.024-11.264c-6.144-39.936-40.96-70.656-82.944-70.656-46.080 0-81.92 35.84-81.92 81.92 0 0 0 0 0 0s0 0 0 1.024c0 6.144-4.096 10.24-10.24 10.24s-10.24-4.096-10.24-10.24c0-46.080-36.864-82.944-81.92-82.944-46.080 0-81.92 35.84-81.92 81.92 0 6.144-4.096 10.24-10.24 10.24s-10.24-4.096-10.24-10.24c0-46.080-35.84-81.92-81.92-81.92-6.144 0-10.24-4.096-10.24-10.24s4.096-10.24 10.24-10.24c40.96 0 75.776 23.552 92.16 57.344 16.384-33.792 51.2-57.344 92.16-57.344 39.936 0 74.752 23.552 92.16 58.368 16.384-34.816 51.2-58.368 92.16-58.368 39.936 0 75.776 22.528 92.16 56.32 16.384-33.792 51.2-56.32 92.16-56.32 6.144 0 10.24 4.096 10.24 10.24s-4.096 10.24-10.24 10.24zM788.48 499.2c-41.984 0-75.776 30.72-80.896 70.656 0 4.096 1.024 8.192 1.024 12.288 0 6.144-4.096 10.24-10.24 10.24-2.048 0-3.072-1.024-5.12-1.024-4.096-2.048-7.168-6.144-7.168-10.24s0-7.168 1.024-11.264c-6.144-39.936-40.96-70.656-82.944-70.656-46.080 0-81.92 35.84-81.92 81.92 0 0 0 0 0 0s0 0 0 1.024c0 6.144-4.096 10.24-10.24 10.24s-10.24-4.096-10.24-10.24c0-46.080-36.864-82.944-81.92-82.944-46.080 0-81.92 35.84-81.92 81.92 0 6.144-4.096 10.24-10.24 10.24s-10.24-4.096-10.24-10.24c0-46.080-35.84-81.92-81.92-81.92-6.144 0-10.24-4.096-10.24-10.24s4.096-10.24 10.24-10.24c40.96 0 75.776 23.552 92.16 57.344 16.384-33.792 51.2-57.344 92.16-57.344 39.936 0 74.752 23.552 92.16 58.368 16.384-34.816 51.2-58.368 92.16-58.368 39.936 0 75.776 22.528 92.16 56.32 16.384-33.792 51.2-56.32 92.16-56.32 6.144 0 10.24 4.096 10.24 10.24s-4.096 10.24-10.24 10.24zM788.48 632.32c-41.984 0-75.776 30.72-80.896 70.656 0 4.096 1.024 8.192 1.024 12.288 0 6.144-4.096 10.24-10.24 10.24-2.048 0-3.072-1.024-5.12-1.024-4.096-2.048-7.168-6.144-7.168-10.24s0-7.168 1.024-11.264c-6.144-39.936-40.96-70.656-82.944-70.656-46.080 0-81.92 35.84-81.92 81.92 0 0 0 0 0 0s0 0 0 1.024c0 6.144-4.096 10.24-10.24 10.24s-10.24-4.096-10.24-10.24c0-46.080-36.864-82.944-81.92-82.944-46.080 0-81.92 35.84-81.92 81.92 0 6.144-4.096 10.24-10.24 10.24s-10.24-4.096-10.24-10.24c0-46.080-35.84-81.92-81.92-81.92-6.144 0-10.24-4.096-10.24-10.24s4.096-10.24 10.24-10.24c40.96 0 75.776 23.552 92.16 57.344 16.384-33.792 51.2-57.344 92.16-57.344 39.936 0 74.752 23.552 92.16 58.368 16.384-34.816 51.2-58.368 92.16-58.368 39.936 0 75.776 22.528 92.16 56.32 16.384-33.792 51.2-56.32 92.16-56.32 6.144 0 10.24 4.096 10.24 10.24s-4.096 10.24-10.24 10.24z" />
<glyph unicode="&#xe919;" glyph-name="lightbolt_20" d="M512 550.4l153.6 409.6-256-51.2-204.8-614.4 256 51.2-51.2-409.6 409.6 665.6z" />
<glyph unicode="&#xe91a;" glyph-name="pencil_20" d="M51.2 140.8l-51.2-204.8 204.8 51.2zM1024 806.4l-148.48 153.6-107.52-102.4 153.6-153.6zM102.627 190.687l615.46 615.46 152.055-152.055-615.46-615.46-152.055 152.055z" />
<glyph unicode="&#xe91b;" glyph-name="pin_20" d="M911.36 494.080c0 5.12 0 5.12 0 0 0 15.36 5.12 20.48 5.12 30.72 0 15.36 5.12 30.72 5.12 51.2 0 209.92-184.32 384-409.6 384s-409.6-174.080-409.6-384c0-15.36 0-35.84 5.12-51.2 0-10.24 5.12-15.36 5.12-25.6 0 0 0 0 0-5.12 56.32-286.72 399.36-558.080 399.36-558.080s343.040 271.36 399.36 558.080zM348.16 576c0 87.040 71.68 153.6 163.84 153.6s163.84-66.56 163.84-153.6-71.68-153.6-163.84-153.6-163.84 66.56-163.84 153.6z" />
<glyph unicode="&#xe91c;" glyph-name="plus_64" d="M512-64c283.2 0 512 228.8 512 512s-228.8 512-512 512-512-228.8-512-512 228.8-512 512-512zM512 928c265.6 0 480-214.4 480-480s-214.4-480-480-480-480 214.4-480 480 214.4 480 480 480zM288 432h208v-208c0-9.6 6.4-16 16-16s16 6.4 16 16v208h208c9.6 0 16 6.4 16 16s-6.4 16-16 16h-208v208c0 9.6-6.4 16-16 16s-16-6.4-16-16v-208h-208c-9.6 0-16-6.4-16-16s6.4-16 16-16z" />
<glyph unicode="&#xe91d;" glyph-name="search_32" d="M480 652.8c-86.4 0-156.8-70.4-156.8-160 0-9.6-6.4-16-16-16s-16 6.4-16 16c0 105.6 83.2 192 188.8 192 9.6 0 16-6.4 16-16s-6.4-16-16-16zM723.2 156.8c-28.8 28.8-25.6 76.8 3.2 105.6 12.8 12.8 32 19.2 51.2 19.2s35.2-9.6 48-22.4l105.6-108.8c57.6 83.2 92.8 185.6 92.8 294.4 0 281.6-230.4 512-512 512s-512-227.2-512-508.8c0-281.6 230.4-512 512-512 121.6 0 230.4 41.6 320 112l-108.8 108.8zM480 201.6c-156.8 0-288 131.2-288 291.2s128 291.2 288 291.2 288-131.2 288-291.2-131.2-291.2-288-291.2z" />
<glyph unicode="&#xe91e;" glyph-name="solaire_64" d="M784 448c0 150.4-121.6 272-272 272s-272-121.6-272-272c0-150.4 121.6-272 272-272s272 121.6 272 272zM512 208c-132.8 0-240 107.2-240 240s107.2 240 240 240 240-107.2 240-240c0-132.8-107.2-240-240-240zM496 832v-64c0-9.6 6.4-16 16-16s16 6.4 16 16v64c0 9.6-6.4 16-16 16s-16-6.4-16-16zM496 128v-64c0-9.6 6.4-16 16-16s16 6.4 16 16v64c0 9.6-6.4 16-16 16s-16-6.4-16-16zM832 464c-9.6 0-16-6.4-16-16s6.4-16 16-16h64c9.6 0 16 6.4 16 16s-6.4 16-16 16h-64zM208 448c0 9.6-6.4 16-16 16h-64c-9.6 0-16-6.4-16-16s6.4-16 16-16h64c9.6 0 16 6.4 16 16zM772.8 164.8c3.2-3.2 8-4.8 11.2-4.8s8 1.6 11.2 4.8c6.4 6.4 6.4 16 0 22.4l-48 48c-6.4 6.4-16 6.4-22.4 0s-6.4-16 0-22.4l48-48zM276.8 660.8c3.2-3.2 8-4.8 11.2-4.8s8 1.6 11.2 4.8c6.4 6.4 6.4 16 0 22.4l-48 48c-6.4 6.4-16 6.4-22.4 0s-6.4-16 0-22.4l48-48zM228.8 164.8c3.2-3.2 8-4.8 11.2-4.8s8 1.6 11.2 4.8l48 48c6.4 6.4 6.4 16 0 22.4s-16 6.4-22.4 0l-48-48c-6.4-6.4-6.4-16 0-22.4zM747.2 660.8l48 48c6.4 6.4 6.4 16 0 22.4s-16 6.4-22.4 0l-48-48c-6.4-6.4-6.4-16 0-22.4 3.2-3.2 8-4.8 11.2-4.8s8 1.6 11.2 4.8z" />
<glyph unicode="&#xe91f;" glyph-name="solaire_100" d="M512 711.168c-145.408 0-263.168-117.76-263.168-263.168s117.76-263.168 263.168-263.168 263.168 117.76 263.168 263.168c0 145.408-117.76 263.168-263.168 263.168zM512 205.312c-133.12 0-242.688 109.568-242.688 242.688s108.544 242.688 242.688 242.688 242.688-108.544 242.688-242.688c0-133.12-109.568-242.688-242.688-242.688zM512 753.152c6.144 0 10.24 4.096 10.24 10.24v63.488c0 6.144-4.096 10.24-10.24 10.24s-10.24-4.096-10.24-10.24v-63.488c0-5.12 4.096-10.24 10.24-10.24zM512 142.848c-6.144 0-10.24-4.096-10.24-10.24v-63.488c0-6.144 4.096-10.24 10.24-10.24s10.24 4.096 10.24 10.24v63.488c0 5.12-4.096 10.24-10.24 10.24zM890.88 458.24h-61.44c-6.144 0-10.24-4.096-10.24-10.24s4.096-10.24 10.24-10.24h61.44c6.144 0 10.24 4.096 10.24 10.24s-4.096 10.24-10.24 10.24zM194.56 458.24h-61.44c-6.144 0-10.24-4.096-10.24-10.24s4.096-10.24 10.24-10.24h61.44c6.144 0 10.24 4.096 10.24 10.24s-4.096 10.24-10.24 10.24zM754.688 219.648c-4.096 4.096-10.24 4.096-14.336 0s-4.096-10.24 0-14.336l40.96-40.96c2.048-2.048 5.12-3.072 7.168-3.072s5.12 1.024 7.168 3.072c4.096 4.096 4.096 10.24 0 14.336l-40.96 40.96zM248.832 711.168c-4.096-4.096-4.096-10.24 0-14.336l40.96-40.96c2.048-2.048 5.12-3.072 7.168-3.072s5.12 1.024 7.168 3.072c4.096 4.096 4.096 10.24 0 14.336l-40.96 40.96c-4.096 4.096-10.24 4.096-14.336 0zM279.552 229.888l-40.96-40.96c-4.096-4.096-4.096-10.24 0-14.336 2.048-2.048 5.12-3.072 7.168-3.072s5.12 1.024 7.168 3.072l40.96 40.96c4.096 4.096 4.096 10.24 0 14.336s-10.24 4.096-14.336 0zM781.312 731.648l-40.96-40.96c-4.096-4.096-4.096-10.24 0-14.336 2.048-2.048 5.12-3.072 7.168-3.072s5.12 1.024 7.168 3.072l40.96 40.96c4.096 4.096 4.096 10.24 0 14.336s-10.24 4.096-14.336 0z" />
<glyph unicode="&#xe920;" glyph-name="top_64" d="M512 960c-283.2 0-512-228.8-512-512s228.8-512 512-512 512 228.8 512 512-228.8 512-512 512zM512-32c-265.6 0-480 214.4-480 480s214.4 480 480 480 480-214.4 480-480-214.4-480-480-480zM523.2 715.2c-1.6 1.6-3.2 3.2-4.8 3.2-3.2 1.6-8 1.6-12.8 0-1.6-1.6-3.2-1.6-4.8-3.2l-160-160c-6.4-6.4-6.4-16 0-22.4s16-6.4 22.4 0l132.8 132.8v-457.6c0-9.6 6.4-16 16-16s16 6.4 16 16v457.6l132.8-132.8c3.2-3.2 8-4.8 11.2-4.8s8 1.6 11.2 4.8c6.4 6.4 6.4 16 0 22.4l-160 160z" />
<glyph unicode="&#xe921;" glyph-name="twitter_26" d="M512-64c283.569 0 512 228.431 512 512s-228.431 512-512 512c-283.569 0-512-228.431-512-512s228.431-512 512-512zM322.954 412.554c7.877 0 11.815 0 19.692 0s15.754 0 23.631 3.938c-51.2 7.877-90.585 51.2-90.585 102.4 0 0 0 0 0 0 39.385-7.877 35.446-11.815 51.2-11.815-27.569 19.692-43.323 51.2-43.323 86.646 0 19.692 7.877 35.446 15.754 51.2 51.2-63.015 129.969-106.338 216.615-110.277 0 7.877-3.938 15.754-3.938 23.631 0 59.077 47.262 106.338 106.338 106.338 31.508 0 59.077-11.815 78.769-31.508 23.631 3.938 47.262 11.815 66.954 23.631-7.877-23.631-23.631-43.323-47.262-59.077 19.692 3.938 43.323 7.877 59.077 15.754-15.754-19.692-31.508-39.385-51.2-55.138 0-3.938 0-7.877 0-11.815 0-137.846-106.338-299.323-299.323-299.323-59.077 0-114.215 15.754-161.477 47.262 7.877 0 15.754 0 23.631 0 47.262 0 94.523 15.754 129.969 43.323-43.323 3.938-82.708 31.508-94.523 74.831z" />
<glyph unicode="&#xe922;" glyph-name="twitter_40" d="M512-64c281.6 0 512 230.4 512 512s-230.4 512-512 512c-281.6 0-512-230.4-512-512s230.4-512 512-512zM322.56 412.16c7.68-2.56 12.8-2.56 20.48-2.56 10.24 0 17.92 2.56 25.6 2.56-48.64 10.24-87.040 51.2-87.040 102.4 0 0 0 0 0 0 25.6-7.68 33.28-12.8 48.64-12.8-28.16 17.92-46.080 51.2-46.080 87.040 0 17.92 5.12 38.4 15.36 53.76 51.2-64 130.56-104.96 217.6-110.080-2.56 7.68-2.56 15.36-2.56 23.040 0 58.88 46.080 104.96 104.96 104.96 30.72 0 56.32-12.8 76.8-33.28 23.040 5.12 46.080 12.8 66.56 25.6-7.68-25.6-25.6-46.080-46.080-58.88 20.48 2.56 40.96 7.68 61.44 15.36-15.36-20.48-30.72-38.4-51.2-53.76 0-5.12 0-10.24 0-12.8 0-138.24-104.96-299.52-299.52-299.52-58.88 0-115.2 17.92-161.28 46.080 7.68 0 15.36-2.56 25.6-2.56 48.64 0 94.72 17.92 130.56 46.080-48.64 7.68-87.040 38.4-99.84 79.36z" />
<glyph unicode="&#xe923;" glyph-name="video_20" d="M1013.76 652.8c0 0-10.24 71.68-40.96 102.4-40.96 40.96-81.92 40.96-102.4 40.96-143.36 10.24-358.4 10.24-358.4 10.24s-215.040 0-358.4-10.24c-20.48 0-61.44 0-102.4-40.96-30.72-30.72-40.96-102.4-40.96-102.4s-10.24-81.92-10.24-163.84v-76.8c0-81.92 10.24-163.84 10.24-163.84s10.24-71.68 40.96-102.4c40.96-40.96 92.16-40.96 112.64-46.080 81.92-5.12 348.16-10.24 348.16-10.24s215.040 0 358.4 10.24c20.48 0 61.44 5.12 102.4 40.96 30.72 30.72 40.96 102.4 40.96 102.4s10.24 81.92 10.24 163.84v81.92c0 81.92-10.24 163.84-10.24 163.84zM404.48 320v286.72l276.48-143.36-276.48-143.36z" />
<glyph unicode="&#xe924;" glyph-name="youtube_26" d="M512-64c283.569 0 512 228.431 512 512s-228.431 512-512 512c-283.569 0-512-228.431-512-512s228.431-512 512-512zM275.692 487.385c0 43.323 11.815 118.154 78.769 118.154h315.077c66.954 0 78.769-63.015 78.769-106.338v-98.462c0-43.323-11.815-106.338-78.769-106.338h-315.077c-66.954 0-78.769 74.831-78.769 118.154v74.831zM472.615 526.769v-157.538l118.154 78.769z" />
<glyph unicode="&#xe925;" glyph-name="youtube_40" d="M1024 448c0 281.6-230.4 512-512 512s-512-230.4-512-512c0-281.6 230.4-512 512-512s512 230.4 512 512zM230.4 345.6v204.8c0 51.2 25.6 102.4 102.4 102.4h384c76.8 0 102.4-51.2 102.4-102.4v-204.8c0-51.2-25.6-102.4-102.4-102.4h-384c-76.8 0-102.4 51.2-102.4 102.4zM460.8 373.76l153.6 74.24-153.6 76.8z" />
<glyph unicode="&#xe926;" glyph-name="close-no-border_64" d="M350.4 286.4c3.2-3.2 8-4.8 11.2-4.8s8 1.6 11.2 4.8l147.2 147.2 147.2-147.2c3.2-3.2 8-4.8 11.2-4.8s8 1.6 11.2 4.8c6.4 6.4 6.4 16 0 22.4l-147.2 147.2 147.2 147.2c6.4 6.4 6.4 16 0 22.4s-16 6.4-22.4 0l-147.2-147.2-147.2 147.2c-6.4 6.4-16 6.4-22.4 0s-6.4-16 0-22.4l147.2-147.2-147.2-147.2c-6.4-6.4-6.4-16 0-22.4z" />
<glyph unicode="&#xe927;" glyph-name="close" d="M21.943-42.057c14.629-14.629 29.257-21.943 51.2-21.943s36.571 7.314 51.2 21.943l387.657 387.657 387.657-387.657c14.629-14.629 36.571-21.943 51.2-21.943s36.571 7.314 51.2 21.943c29.257 29.257 29.257 73.143 0 102.4l-387.657 387.657 387.657 387.657c29.257 29.257 29.257 73.143 0 102.4s-73.143 29.257-102.4 0l-387.657-387.657-387.657 387.657c-29.257 29.257-73.143 29.257-102.4 0s-29.257-73.143 0-102.4l387.657-387.657-387.657-387.657c-29.257-29.257-29.257-73.143 0-102.4z" />
<glyph unicode="&#xe928;" glyph-name="login_32" d="M553.6 374.4c-12.8-12.8-12.8-32 0-44.8 6.4-6.4 16-9.6 22.4-9.6s16 3.2 22.4 9.6l96 96c3.2 3.2 6.4 6.4 6.4 9.6 3.2 6.4 3.2 16 0 25.6-3.2 3.2-3.2 6.4-6.4 9.6l-96 96c-12.8 12.8-32 12.8-44.8 0s-12.8-32 0-44.8l41.6-41.6h-179.2v-64h179.2l-41.6-41.6zM512 960c-281.6 0-512-230.4-512-512s230.4-512 512-512 512 230.4 512 512-230.4 512-512 512zM768 480v-192c0-54.4-41.6-96-96-96h-160c-54.4 0-96 41.6-96 96v128h-160c-19.2 0-32 12.8-32 32s12.8 32 32 32h160v128c0 54.4 41.6 96 96 96h160c54.4 0 96-41.6 96-96v-128z" />
<glyph unicode="&#xe92a;" glyph-name="logout3_32" d="M512 960c-281.6 0-512-230.4-512-512s230.4-512 512-512 512 230.4 512 512-230.4 512-512 512zM886.4 425.6l-96-96c-6.4-6.4-12.8-9.6-22.4-9.6s-16 3.2-22.4 9.6c-12.8 12.8-12.8 32 0 44.8l41.6 41.6h-179.2v-128c0-54.4-41.6-96-96-96h-160c-54.4 0-96 41.6-96 96v320c0 54.4 41.6 96 96 96h160c54.4 0 96-41.6 96-96v-128h179.2l-41.6 41.6c-12.8 12.8-12.8 32 0 44.8s32 12.8 44.8 0l96-96c3.2-3.2 6.4-6.4 6.4-9.6 3.2-6.4 3.2-16 0-25.6 0-3.2-3.2-6.4-6.4-9.6zM448 480c-19.2 0-32-12.8-32-32s12.8-32 32-32h160v64h-160z" />
</font>
</defs>
</svg>
